<mxfile host="app.diagrams.net" modified="2021-08-03T16:37:24.569Z" agent="5.0 (Windows NT 10.0; Win64; x64) AppleWebKit/537.36 (KHTML, like Gecko) Chrome/92.0.4515.115 Safari/537.36" etag="wlg-gz6suZBVCf0AM8pM" version="14.9.3" type="github">
  <diagram id="dgKpjPPaI4LAme8W9m-0" name="Arquitectura">
    <mxGraphModel dx="1301" dy="277" grid="1" gridSize="10" guides="1" tooltips="1" connect="1" arrows="1" fold="1" page="1" pageScale="1" pageWidth="827" pageHeight="1169" math="0" shadow="0">
      <root>
        <mxCell id="0" />
        <mxCell id="1" parent="0" />
        <UserObject label="" id="KOM_lpvtxGSNcEZmbtH8-15">
          <mxCell style="rounded=1;whiteSpace=wrap;html=1;absoluteArcSize=1;arcSize=14;strokeWidth=1;pointerEvents=0;startSize=40;" parent="1" vertex="1">
            <mxGeometry x="283" y="149.5" width="257" height="270" as="geometry" />
          </mxCell>
        </UserObject>
        <mxCell id="KOM_lpvtxGSNcEZmbtH8-64" value="" style="rounded=1;whiteSpace=wrap;html=1;absoluteArcSize=1;arcSize=14;strokeWidth=1;pointerEvents=0;startSize=40;" parent="1" vertex="1">
          <mxGeometry x="283" y="360" width="257" height="60" as="geometry" />
        </mxCell>
        <mxCell id="AAvzbvVHKAweYi1Nj42b-69" value="" style="rounded=1;whiteSpace=wrap;html=1;absoluteArcSize=1;arcSize=14;strokeWidth=1;pointerEvents=0;startSize=40;" vertex="1" parent="1">
          <mxGeometry x="283" y="359.72" width="67" height="60" as="geometry" />
        </mxCell>
        <mxCell id="KOM_lpvtxGSNcEZmbtH8-50" value="" style="rounded=1;whiteSpace=wrap;html=1;absoluteArcSize=1;arcSize=14;strokeWidth=1;pointerEvents=0;startSize=40;" parent="1" vertex="1">
          <mxGeometry x="-10" y="150" width="260" height="270" as="geometry" />
        </mxCell>
        <mxCell id="KOM_lpvtxGSNcEZmbtH8-63" value="" style="rounded=1;whiteSpace=wrap;html=1;absoluteArcSize=1;arcSize=14;strokeWidth=1;pointerEvents=0;startSize=40;" parent="1" vertex="1">
          <mxGeometry x="-10" y="360" width="260" height="59.5" as="geometry" />
        </mxCell>
        <mxCell id="AAvzbvVHKAweYi1Nj42b-68" value="" style="rounded=1;whiteSpace=wrap;html=1;absoluteArcSize=1;arcSize=14;strokeWidth=1;pointerEvents=0;startSize=40;" vertex="1" parent="1">
          <mxGeometry x="-11" y="360.22" width="71" height="59.5" as="geometry" />
        </mxCell>
        <mxCell id="KOM_lpvtxGSNcEZmbtH8-32" value="" style="rounded=1;whiteSpace=wrap;html=1;absoluteArcSize=1;arcSize=14;strokeWidth=1;pointerEvents=0;startSize=40;" parent="1" vertex="1">
          <mxGeometry x="290" y="185" width="81" height="138" as="geometry" />
        </mxCell>
        <mxCell id="KOM_lpvtxGSNcEZmbtH8-30" value="" style="rounded=1;whiteSpace=wrap;html=1;absoluteArcSize=1;arcSize=14;strokeWidth=1;pointerEvents=0;startSize=40;" parent="1" vertex="1">
          <mxGeometry x="430" y="214" width="97.89" height="99" as="geometry" />
        </mxCell>
        <mxCell id="KOM_lpvtxGSNcEZmbtH8-10" value="" style="rounded=1;whiteSpace=wrap;html=1;absoluteArcSize=1;arcSize=14;strokeWidth=1;pointerEvents=0;startSize=40;" parent="1" vertex="1">
          <mxGeometry x="67" y="170" width="153" height="160" as="geometry" />
        </mxCell>
        <mxCell id="IHtDv6OHQ2jKne3Ynyix-73" value="PLC" style="whiteSpace=wrap;html=1;shape=mxgraph.basic.isocube;isoAngle=23.33;pointerEvents=0;startSize=40;strokeWidth=2;" parent="1" vertex="1">
          <mxGeometry y="239.64" width="60" height="60" as="geometry" />
        </mxCell>
        <mxCell id="IHtDv6OHQ2jKne3Ynyix-31" value="" style="group;fillColor=#1ba1e2;strokeColor=#006EAF;fontColor=#ffffff;" parent="1" vertex="1" connectable="0">
          <mxGeometry x="597" y="190" width="48" height="40" as="geometry" />
        </mxCell>
        <mxCell id="IHtDv6OHQ2jKne3Ynyix-29" value="" style="shape=actor;whiteSpace=wrap;html=1;" parent="IHtDv6OHQ2jKne3Ynyix-31" vertex="1">
          <mxGeometry x="12" width="28" height="32" as="geometry" />
        </mxCell>
        <mxCell id="IHtDv6OHQ2jKne3Ynyix-1" value="" style="shape=actor;whiteSpace=wrap;html=1;" parent="IHtDv6OHQ2jKne3Ynyix-31" vertex="1">
          <mxGeometry y="8" width="24" height="32" as="geometry" />
        </mxCell>
        <mxCell id="IHtDv6OHQ2jKne3Ynyix-30" value="" style="shape=actor;whiteSpace=wrap;html=1;" parent="IHtDv6OHQ2jKne3Ynyix-31" vertex="1">
          <mxGeometry x="24" y="8" width="24" height="32" as="geometry" />
        </mxCell>
        <mxCell id="IHtDv6OHQ2jKne3Ynyix-39" value="" style="curved=1;endArrow=classic;html=1;startSize=40;entryX=0.1;entryY=0.5;entryDx=0;entryDy=0;entryPerimeter=0;" parent="1" target="IHtDv6OHQ2jKne3Ynyix-1" edge="1" source="AAvzbvVHKAweYi1Nj42b-5">
          <mxGeometry width="50" height="50" relative="1" as="geometry">
            <mxPoint x="540" y="260" as="sourcePoint" />
            <mxPoint x="590" y="210" as="targetPoint" />
            <Array as="points">
              <mxPoint x="590" y="260" />
              <mxPoint x="540" y="210" />
            </Array>
          </mxGeometry>
        </mxCell>
        <mxCell id="IHtDv6OHQ2jKne3Ynyix-40" value="" style="group;fillColor=#1ba1e2;strokeColor=#006EAF;fontColor=#ffffff;" parent="1" vertex="1" connectable="0">
          <mxGeometry x="600" y="280" width="48" height="40" as="geometry" />
        </mxCell>
        <mxCell id="IHtDv6OHQ2jKne3Ynyix-41" value="" style="shape=actor;whiteSpace=wrap;html=1;" parent="IHtDv6OHQ2jKne3Ynyix-40" vertex="1">
          <mxGeometry x="12" width="28" height="32" as="geometry" />
        </mxCell>
        <mxCell id="IHtDv6OHQ2jKne3Ynyix-42" value="" style="shape=actor;whiteSpace=wrap;html=1;" parent="IHtDv6OHQ2jKne3Ynyix-40" vertex="1">
          <mxGeometry y="8" width="24" height="32" as="geometry" />
        </mxCell>
        <mxCell id="IHtDv6OHQ2jKne3Ynyix-43" value="" style="shape=actor;whiteSpace=wrap;html=1;" parent="IHtDv6OHQ2jKne3Ynyix-40" vertex="1">
          <mxGeometry x="24" y="8" width="24" height="32" as="geometry" />
        </mxCell>
        <mxCell id="IHtDv6OHQ2jKne3Ynyix-44" value="" style="curved=1;endArrow=classic;html=1;startSize=40;entryX=0;entryY=0.75;entryDx=0;entryDy=0;" parent="1" source="AAvzbvVHKAweYi1Nj42b-5" target="IHtDv6OHQ2jKne3Ynyix-42" edge="1">
          <mxGeometry width="50" height="50" relative="1" as="geometry">
            <mxPoint x="520.99" y="260" as="sourcePoint" />
            <mxPoint x="600" y="220" as="targetPoint" />
            <Array as="points">
              <mxPoint x="590" y="260" />
              <mxPoint x="540" y="300" />
            </Array>
          </mxGeometry>
        </mxCell>
        <mxCell id="IHtDv6OHQ2jKne3Ynyix-50" value="" style="group" parent="1" vertex="1" connectable="0">
          <mxGeometry x="618.5" y="244" width="5" height="25.5" as="geometry" />
        </mxCell>
        <mxCell id="IHtDv6OHQ2jKne3Ynyix-46" value="" style="ellipse;whiteSpace=wrap;html=1;aspect=fixed;pointerEvents=0;startSize=40;" parent="IHtDv6OHQ2jKne3Ynyix-50" vertex="1">
          <mxGeometry y="10.5" width="5" height="5" as="geometry" />
        </mxCell>
        <mxCell id="IHtDv6OHQ2jKne3Ynyix-48" value="" style="ellipse;whiteSpace=wrap;html=1;aspect=fixed;pointerEvents=0;startSize=40;" parent="IHtDv6OHQ2jKne3Ynyix-50" vertex="1">
          <mxGeometry width="5" height="5" as="geometry" />
        </mxCell>
        <mxCell id="IHtDv6OHQ2jKne3Ynyix-49" value="" style="ellipse;whiteSpace=wrap;html=1;aspect=fixed;pointerEvents=0;startSize=40;" parent="IHtDv6OHQ2jKne3Ynyix-50" vertex="1">
          <mxGeometry y="20.5" width="5" height="5" as="geometry" />
        </mxCell>
        <mxCell id="KOM_lpvtxGSNcEZmbtH8-43" value="" style="edgeStyle=orthogonalEdgeStyle;rounded=0;jumpSize=3;orthogonalLoop=1;jettySize=auto;html=1;endArrow=classicThin;endFill=1;strokeWidth=0.25;" parent="1" target="KOM_lpvtxGSNcEZmbtH8-14" edge="1">
          <mxGeometry relative="1" as="geometry">
            <mxPoint x="326.5" y="258" as="sourcePoint" />
          </mxGeometry>
        </mxCell>
        <mxCell id="KOM_lpvtxGSNcEZmbtH8-4" style="edgeStyle=orthogonalEdgeStyle;rounded=0;orthogonalLoop=1;jettySize=auto;html=1;exitX=1;exitY=0.5;exitDx=0;exitDy=0;exitPerimeter=0;entryX=0;entryY=0.5;entryDx=0;entryDy=0;entryPerimeter=0;endArrow=classicThin;endFill=1;" parent="1" source="IHtDv6OHQ2jKne3Ynyix-68" target="IHtDv6OHQ2jKne3Ynyix-69" edge="1">
          <mxGeometry relative="1" as="geometry">
            <Array as="points">
              <mxPoint x="140" y="297" />
              <mxPoint x="140" y="278" />
            </Array>
          </mxGeometry>
        </mxCell>
        <mxCell id="KOM_lpvtxGSNcEZmbtH8-5" style="edgeStyle=orthogonalEdgeStyle;rounded=0;orthogonalLoop=1;jettySize=auto;html=1;exitX=0.5;exitY=0;exitDx=0;exitDy=0;exitPerimeter=0;entryX=0.473;entryY=1.014;entryDx=0;entryDy=0;entryPerimeter=0;endArrow=classicThin;endFill=1;" parent="1" source="IHtDv6OHQ2jKne3Ynyix-68" target="IHtDv6OHQ2jKne3Ynyix-87" edge="1">
          <mxGeometry relative="1" as="geometry" />
        </mxCell>
        <mxCell id="IHtDv6OHQ2jKne3Ynyix-68" value="&lt;span style=&quot;font-size: 4px ; line-height: 60%&quot;&gt;Gateway&lt;br&gt;Devices&lt;br&gt;&lt;/span&gt;" style="whiteSpace=wrap;html=1;shape=mxgraph.basic.document;pointerEvents=0;startSize=40;" parent="1" vertex="1">
          <mxGeometry x="97.66" y="280" width="22.34" height="34" as="geometry" />
        </mxCell>
        <mxCell id="IHtDv6OHQ2jKne3Ynyix-69" value="&lt;span style=&quot;font-size: 5px&quot;&gt;DetecciÃ³n de Alarmas&lt;br&gt;&lt;/span&gt;" style="whiteSpace=wrap;html=1;shape=mxgraph.basic.document;pointerEvents=0;startSize=40;" parent="1" vertex="1">
          <mxGeometry x="160" y="248" width="42.67" height="59.64" as="geometry" />
        </mxCell>
        <mxCell id="KOM_lpvtxGSNcEZmbtH8-2" style="edgeStyle=orthogonalEdgeStyle;rounded=0;orthogonalLoop=1;jettySize=auto;html=1;exitX=0.5;exitY=1;exitDx=0;exitDy=0;exitPerimeter=0;entryX=0.5;entryY=0;entryDx=0;entryDy=0;entryPerimeter=0;endArrow=classicThin;endFill=1;" parent="1" source="IHtDv6OHQ2jKne3Ynyix-70" target="IHtDv6OHQ2jKne3Ynyix-69" edge="1">
          <mxGeometry relative="1" as="geometry">
            <Array as="points">
              <mxPoint x="191" y="230" />
              <mxPoint x="181" y="230" />
            </Array>
          </mxGeometry>
        </mxCell>
        <mxCell id="IHtDv6OHQ2jKne3Ynyix-70" value="&lt;span style=&quot;font-size: 5px&quot;&gt;ID&lt;br&gt;VALUE&lt;br&gt;&lt;/span&gt;" style="whiteSpace=wrap;html=1;shape=mxgraph.basic.document;pointerEvents=0;startSize=40;" parent="1" vertex="1">
          <mxGeometry x="186.34" y="183" width="22.67" height="34" as="geometry" />
        </mxCell>
        <mxCell id="IHtDv6OHQ2jKne3Ynyix-71" value="&lt;font style=&quot;font-size: 4px&quot;&gt;Se apago PLC&lt;/font&gt;" style="whiteSpace=wrap;html=1;shape=mxgraph.basic.document;pointerEvents=0;startSize=40;" parent="1" vertex="1">
          <mxGeometry x="129.00000000000003" y="320" width="21.34" height="30" as="geometry" />
        </mxCell>
        <mxCell id="IHtDv6OHQ2jKne3Ynyix-72" value="" style="strokeWidth=2;html=1;shape=mxgraph.flowchart.database;whiteSpace=wrap;pointerEvents=0;startSize=40;" parent="1" vertex="1">
          <mxGeometry x="25.200000000000003" y="249.64" width="9.6" height="12" as="geometry" />
        </mxCell>
        <mxCell id="IHtDv6OHQ2jKne3Ynyix-87" value="&lt;p style=&quot;line-height: 120% ; font-size: 6px&quot;&gt;Driver de ComunicaciÃ³n&amp;nbsp;&lt;br&gt;(node-snap7)&lt;/p&gt;" style="strokeWidth=2;html=1;shape=mxgraph.flowchart.loop_limit;whiteSpace=wrap;pointerEvents=0;startSize=40;" parent="1" vertex="1">
          <mxGeometry x="77.01" y="183" width="64.67" height="30" as="geometry" />
        </mxCell>
        <mxCell id="IHtDv6OHQ2jKne3Ynyix-88" value="" style="endArrow=classic;startArrow=classic;html=1;exitX=0.5;exitY=0;exitDx=0;exitDy=0;exitPerimeter=0;entryX=-0.035;entryY=0.592;entryDx=0;entryDy=0;entryPerimeter=0;" parent="1" source="IHtDv6OHQ2jKne3Ynyix-73" target="IHtDv6OHQ2jKne3Ynyix-87" edge="1">
          <mxGeometry width="50" height="50" relative="1" as="geometry">
            <mxPoint x="120" y="300" as="sourcePoint" />
            <mxPoint x="170" y="250" as="targetPoint" />
            <Array as="points">
              <mxPoint x="30" y="201" />
            </Array>
          </mxGeometry>
        </mxCell>
        <mxCell id="IHtDv6OHQ2jKne3Ynyix-89" value="" style="shape=message;html=1;whiteSpace=wrap;html=1;outlineConnect=0;pointerEvents=0;startSize=40;strokeWidth=1;" parent="1" vertex="1">
          <mxGeometry x="22" y="196" width="18" height="12" as="geometry" />
        </mxCell>
        <mxCell id="IHtDv6OHQ2jKne3Ynyix-92" value="&lt;font style=&quot;font-size: 5px&quot;&gt;Red industrial&lt;/font&gt;" style="text;html=1;strokeColor=none;fillColor=none;align=center;verticalAlign=middle;whiteSpace=wrap;rounded=0;pointerEvents=0;startSize=40;rotation=-90;" parent="1" vertex="1">
          <mxGeometry x="-23.00000000000001" y="210" width="70" height="20" as="geometry" />
        </mxCell>
        <mxCell id="IHtDv6OHQ2jKne3Ynyix-94" value="" style="shape=image;verticalLabelPosition=bottom;labelBackgroundColor=#ffffff;verticalAlign=top;aspect=fixed;imageAspect=0;image=https://image.flaticon.com/icons/png/512/25/25007.png;" parent="1" vertex="1">
          <mxGeometry x="4.5" y="365" width="40" height="40" as="geometry" />
        </mxCell>
        <mxCell id="IHtDv6OHQ2jKne3Ynyix-96" value="" style="endArrow=classic;startArrow=classic;html=1;entryX=-0.035;entryY=0.592;entryDx=0;entryDy=0;entryPerimeter=0;" parent="1" edge="1">
          <mxGeometry width="50" height="50" relative="1" as="geometry">
            <mxPoint x="183.01" y="201.24" as="sourcePoint" />
            <mxPoint x="141.67655000000013" y="200.76000000000002" as="targetPoint" />
            <Array as="points">
              <mxPoint x="154.01" y="201.24" />
            </Array>
          </mxGeometry>
        </mxCell>
        <mxCell id="KOM_lpvtxGSNcEZmbtH8-1" value="" style="shape=message;html=1;whiteSpace=wrap;html=1;outlineConnect=0;pointerEvents=0;startSize=40;strokeWidth=1;" parent="1" vertex="1">
          <mxGeometry x="154" y="196" width="15" height="10" as="geometry" />
        </mxCell>
        <mxCell id="KOM_lpvtxGSNcEZmbtH8-3" value="" style="shape=message;html=1;whiteSpace=wrap;html=1;outlineConnect=0;pointerEvents=0;startSize=40;strokeWidth=1;" parent="1" vertex="1">
          <mxGeometry x="186.33999999999997" y="226" width="10" height="6" as="geometry" />
        </mxCell>
        <mxCell id="KOM_lpvtxGSNcEZmbtH8-6" value="" style="shape=message;html=1;whiteSpace=wrap;html=1;outlineConnect=0;pointerEvents=0;startSize=40;strokeWidth=1;" parent="1" vertex="1">
          <mxGeometry x="104.00999999999998" y="246" width="10" height="6" as="geometry" />
        </mxCell>
        <mxCell id="KOM_lpvtxGSNcEZmbtH8-7" value="" style="shape=message;html=1;whiteSpace=wrap;html=1;outlineConnect=0;pointerEvents=0;startSize=40;strokeWidth=1;" parent="1" vertex="1">
          <mxGeometry x="134.66999999999996" y="285" width="10" height="6" as="geometry" />
        </mxCell>
        <mxCell id="KOM_lpvtxGSNcEZmbtH8-11" value="&lt;p style=&quot;line-height: 120% ; font-size: 6px&quot;&gt;Acciones: EnviÃ³ de Alertas&lt;/p&gt;" style="strokeWidth=1;html=1;shape=mxgraph.flowchart.loop_limit;whiteSpace=wrap;pointerEvents=0;startSize=40;" parent="1" vertex="1">
          <mxGeometry x="298.17" y="188" width="64.67" height="22" as="geometry" />
        </mxCell>
        <mxCell id="KOM_lpvtxGSNcEZmbtH8-14" value="" style="shape=image;verticalLabelPosition=bottom;labelBackgroundColor=#ffffff;verticalAlign=top;aspect=fixed;imageAspect=0;image=https://www.returngis.net/wp-content/uploads/2019/08/graphql-logo.png;" parent="1" vertex="1">
          <mxGeometry x="310.78000000000003" y="286" width="30" height="30" as="geometry" />
        </mxCell>
        <mxCell id="KOM_lpvtxGSNcEZmbtH8-17" value="" style="endArrow=classic;startArrow=classic;html=1;entryX=0.97;entryY=0.882;entryDx=0;entryDy=0;entryPerimeter=0;exitX=0;exitY=0.25;exitDx=0;exitDy=0;" parent="1" source="KOM_lpvtxGSNcEZmbtH8-14" target="IHtDv6OHQ2jKne3Ynyix-70" edge="1">
          <mxGeometry width="50" height="50" relative="1" as="geometry">
            <mxPoint x="193.01" y="211.24" as="sourcePoint" />
            <mxPoint x="151.67655000000013" y="210.76" as="targetPoint" />
          </mxGeometry>
        </mxCell>
        <mxCell id="KOM_lpvtxGSNcEZmbtH8-18" value="" style="endArrow=classic;startArrow=classic;html=1;entryX=1.045;entryY=0.912;entryDx=0;entryDy=0;entryPerimeter=0;exitX=-0.048;exitY=0.922;exitDx=0;exitDy=0;exitPerimeter=0;" parent="1" source="KOM_lpvtxGSNcEZmbtH8-14" target="IHtDv6OHQ2jKne3Ynyix-68" edge="1">
          <mxGeometry width="50" height="50" relative="1" as="geometry">
            <mxPoint x="300" y="310" as="sourcePoint" />
            <mxPoint x="219.01" y="210" as="targetPoint" />
          </mxGeometry>
        </mxCell>
        <mxCell id="KOM_lpvtxGSNcEZmbtH8-24" value="&lt;font style=&quot;font-size: 8px&quot;&gt;Usuario &quot;N&quot;&lt;/font&gt;" style="text;html=1;strokeColor=none;fillColor=none;align=center;verticalAlign=middle;whiteSpace=wrap;rounded=0;pointerEvents=0;startSize=40;" parent="1" vertex="1">
          <mxGeometry x="596.5" y="318" width="55" height="20" as="geometry" />
        </mxCell>
        <mxCell id="KOM_lpvtxGSNcEZmbtH8-25" value="&lt;font style=&quot;font-size: 8px&quot;&gt;Usuario &quot;1&quot;&lt;/font&gt;" style="text;html=1;strokeColor=none;fillColor=none;align=center;verticalAlign=middle;whiteSpace=wrap;rounded=0;pointerEvents=0;startSize=40;" parent="1" vertex="1">
          <mxGeometry x="593.5" y="224" width="55" height="20" as="geometry" />
        </mxCell>
        <mxCell id="KOM_lpvtxGSNcEZmbtH8-31" value="&lt;span style=&quot;font-size: 8px&quot;&gt;Front End&lt;/span&gt;" style="text;html=1;strokeColor=none;fillColor=none;align=center;verticalAlign=middle;whiteSpace=wrap;rounded=0;pointerEvents=0;startSize=40;" parent="1" vertex="1">
          <mxGeometry x="453.49" y="194" width="55" height="20" as="geometry" />
        </mxCell>
        <mxCell id="IHtDv6OHQ2jKne3Ynyix-59" value="" style="endArrow=classic;startArrow=none;html=1;exitX=0.5;exitY=1;exitDx=0;exitDy=0;entryX=1;entryY=0.5;entryDx=0;entryDy=0;" parent="1" source="KOM_lpvtxGSNcEZmbtH8-37" target="KOM_lpvtxGSNcEZmbtH8-14" edge="1">
          <mxGeometry width="50" height="50" relative="1" as="geometry">
            <mxPoint x="430.99" y="262" as="sourcePoint" />
            <mxPoint x="370.99" y="262" as="targetPoint" />
          </mxGeometry>
        </mxCell>
        <mxCell id="KOM_lpvtxGSNcEZmbtH8-35" value="" style="endArrow=classic;startArrow=classic;html=1;entryX=0.5;entryY=0;entryDx=0;entryDy=0;jumpSize=3;strokeWidth=0.25;" parent="1" target="KOM_lpvtxGSNcEZmbtH8-14" edge="1">
          <mxGeometry width="50" height="50" relative="1" as="geometry">
            <mxPoint x="326" y="258" as="sourcePoint" />
            <mxPoint x="287.9965500000001" y="258.00000000000006" as="targetPoint" />
            <Array as="points" />
          </mxGeometry>
        </mxCell>
        <mxCell id="KOM_lpvtxGSNcEZmbtH8-36" value="" style="shape=message;html=1;whiteSpace=wrap;html=1;outlineConnect=0;pointerEvents=0;startSize=40;strokeWidth=1;" parent="1" vertex="1">
          <mxGeometry x="321.47999999999996" y="269.5" width="10" height="5" as="geometry" />
        </mxCell>
        <mxCell id="KOM_lpvtxGSNcEZmbtH8-37" value="" style="shape=message;html=1;whiteSpace=wrap;html=1;outlineConnect=0;pointerEvents=0;startSize=40;strokeWidth=1;" parent="1" vertex="1">
          <mxGeometry x="390" y="272.82" width="20" height="10" as="geometry" />
        </mxCell>
        <mxCell id="KOM_lpvtxGSNcEZmbtH8-38" value="" style="endArrow=none;startArrow=classic;html=1;exitX=0;exitY=0.5;exitDx=0;exitDy=0;entryX=1;entryY=0.5;entryDx=0;entryDy=0;" parent="1" source="AAvzbvVHKAweYi1Nj42b-5" target="KOM_lpvtxGSNcEZmbtH8-37" edge="1">
          <mxGeometry width="50" height="50" relative="1" as="geometry">
            <mxPoint x="440.99" y="260" as="sourcePoint" />
            <mxPoint x="343.98" y="302.49999999999994" as="targetPoint" />
          </mxGeometry>
        </mxCell>
        <mxCell id="KOM_lpvtxGSNcEZmbtH8-39" value="&lt;span style=&quot;font-size: 8px&quot;&gt;Back End Server&lt;/span&gt;" style="text;html=1;strokeColor=none;fillColor=none;align=center;verticalAlign=middle;whiteSpace=wrap;rounded=0;pointerEvents=0;startSize=40;" parent="1" vertex="1">
          <mxGeometry x="294.99" y="165" width="71.02" height="20" as="geometry" />
        </mxCell>
        <mxCell id="KOM_lpvtxGSNcEZmbtH8-40" value="" style="endArrow=classic;startArrow=classic;html=1;entryX=0.5;entryY=0;entryDx=0;entryDy=0;jumpSize=3;strokeWidth=0.25;" parent="1" edge="1">
          <mxGeometry width="50" height="50" relative="1" as="geometry">
            <mxPoint x="326" y="210" as="sourcePoint" />
            <mxPoint x="326.48" y="230" as="targetPoint" />
            <Array as="points" />
          </mxGeometry>
        </mxCell>
        <mxCell id="KOM_lpvtxGSNcEZmbtH8-41" value="" style="shape=message;html=1;whiteSpace=wrap;html=1;outlineConnect=0;pointerEvents=0;startSize=40;strokeWidth=1;" parent="1" vertex="1">
          <mxGeometry x="323.48" y="218.5" width="6" height="3" as="geometry" />
        </mxCell>
        <mxCell id="KOM_lpvtxGSNcEZmbtH8-44" value="" style="endArrow=classic;startArrow=classic;html=1;entryX=1.001;entryY=0.534;entryDx=0;entryDy=0;entryPerimeter=0;exitX=0.003;exitY=0.621;exitDx=0;exitDy=0;exitPerimeter=0;" parent="1" source="KOM_lpvtxGSNcEZmbtH8-11" target="IHtDv6OHQ2jKne3Ynyix-69" edge="1">
          <mxGeometry width="50" height="50" relative="1" as="geometry">
            <mxPoint x="288.10999999999996" y="220.36" as="sourcePoint" />
            <mxPoint x="186.33999999999997" y="126.86" as="targetPoint" />
          </mxGeometry>
        </mxCell>
        <mxCell id="KOM_lpvtxGSNcEZmbtH8-45" value="" style="shape=message;html=1;whiteSpace=wrap;html=1;outlineConnect=0;pointerEvents=0;startSize=40;strokeWidth=1;" parent="1" vertex="1">
          <mxGeometry x="228" y="309" width="11" height="7" as="geometry" />
        </mxCell>
        <mxCell id="KOM_lpvtxGSNcEZmbtH8-48" value="&lt;span style=&quot;font-size: 8px&quot;&gt;Back End Local&lt;/span&gt;" style="text;html=1;strokeColor=none;fillColor=none;align=center;verticalAlign=middle;whiteSpace=wrap;rounded=0;pointerEvents=0;startSize=40;" parent="1" vertex="1">
          <mxGeometry x="110.51" y="150" width="65.99" height="20" as="geometry" />
        </mxCell>
        <mxCell id="KOM_lpvtxGSNcEZmbtH8-51" value="&lt;span style=&quot;font-size: 8px&quot;&gt;Planta Industrial&lt;/span&gt;" style="text;html=1;strokeColor=none;fillColor=none;align=center;verticalAlign=middle;whiteSpace=wrap;rounded=0;pointerEvents=0;startSize=40;" parent="1" vertex="1">
          <mxGeometry x="-10.989999999999995" y="400" width="70.99" height="20" as="geometry" />
        </mxCell>
        <mxCell id="KOM_lpvtxGSNcEZmbtH8-60" value="" style="shape=image;verticalLabelPosition=bottom;labelBackgroundColor=#ffffff;verticalAlign=top;aspect=fixed;imageAspect=0;image=https://cdn.pixabay.com/photo/2014/12/14/15/57/server-567944_960_720.png;" parent="1" vertex="1">
          <mxGeometry x="298.38" y="370" width="30.74" height="36.25" as="geometry" />
        </mxCell>
        <mxCell id="KOM_lpvtxGSNcEZmbtH8-61" value="&lt;span style=&quot;font-size: 8px&quot;&gt;Servidor AWS&lt;br&gt;&lt;/span&gt;" style="text;html=1;strokeColor=none;fillColor=none;align=center;verticalAlign=middle;whiteSpace=wrap;rounded=0;pointerEvents=0;startSize=40;" parent="1" vertex="1">
          <mxGeometry x="283" y="399.5" width="70.99" height="20" as="geometry" />
        </mxCell>
        <mxCell id="KOM_lpvtxGSNcEZmbtH8-65" value="ARQUITECTURA DEL SISTEMA" style="swimlane;pointerEvents=0;startSize=40;strokeWidth=1;align=center;" parent="1" vertex="1">
          <mxGeometry x="-20" y="90" width="710" height="400" as="geometry" />
        </mxCell>
        <mxCell id="KOM_lpvtxGSNcEZmbtH8-66" value="Leyenda" style="swimlane;fontStyle=0;childLayout=stackLayout;horizontal=1;startSize=26;horizontalStack=0;resizeParent=1;resizeParentMax=0;resizeLast=0;collapsible=1;marginBottom=0;pointerEvents=0;strokeWidth=1;" parent="KOM_lpvtxGSNcEZmbtH8-65" vertex="1">
          <mxGeometry x="580" y="275" width="120" height="130" as="geometry" />
        </mxCell>
        <mxCell id="KOM_lpvtxGSNcEZmbtH8-68" value="75 ms" style="text;strokeColor=none;fillColor=none;align=right;verticalAlign=top;spacingLeft=4;spacingRight=4;overflow=hidden;rotatable=0;points=[[0,0.5],[1,0.5]];portConstraint=eastwest;fontColor=#FFFF00;" parent="KOM_lpvtxGSNcEZmbtH8-66" vertex="1">
          <mxGeometry y="26" width="120" height="26" as="geometry" />
        </mxCell>
        <mxCell id="AAvzbvVHKAweYi1Nj42b-10" value="" style="curved=1;endArrow=classic;html=1;" edge="1" parent="KOM_lpvtxGSNcEZmbtH8-66">
          <mxGeometry width="50" height="50" relative="1" as="geometry">
            <mxPoint x="20" y="98" as="sourcePoint" />
            <mxPoint x="50" y="88" as="targetPoint" />
            <Array as="points">
              <mxPoint x="40" y="98" />
              <mxPoint x="30" y="88" />
              <mxPoint x="20" y="78" />
            </Array>
          </mxGeometry>
        </mxCell>
        <mxCell id="KOM_lpvtxGSNcEZmbtH8-69" value="1.5 seg" style="text;strokeColor=none;fillColor=none;align=right;verticalAlign=top;spacingLeft=4;spacingRight=4;overflow=hidden;rotatable=0;points=[[0,0.5],[1,0.5]];portConstraint=eastwest;fontColor=#FFFF00;" parent="KOM_lpvtxGSNcEZmbtH8-66" vertex="1">
          <mxGeometry y="52" width="120" height="26" as="geometry" />
        </mxCell>
        <mxCell id="AAvzbvVHKAweYi1Nj42b-19" value="100 ms" style="text;strokeColor=none;fillColor=none;align=right;verticalAlign=top;spacingLeft=4;spacingRight=4;overflow=hidden;rotatable=0;points=[[0,0.5],[1,0.5]];portConstraint=eastwest;fontColor=#FF3333;" vertex="1" parent="KOM_lpvtxGSNcEZmbtH8-66">
          <mxGeometry y="78" width="120" height="26" as="geometry" />
        </mxCell>
        <mxCell id="AAvzbvVHKAweYi1Nj42b-20" value="" style="endArrow=classic;startArrow=classic;html=1;entryX=1;entryY=0.5;entryDx=0;entryDy=0;entryPerimeter=0;" edge="1" parent="KOM_lpvtxGSNcEZmbtH8-66">
          <mxGeometry width="50" height="50" relative="1" as="geometry">
            <mxPoint x="60" y="117" as="sourcePoint" />
            <mxPoint x="20" y="116.5" as="targetPoint" />
          </mxGeometry>
        </mxCell>
        <mxCell id="AAvzbvVHKAweYi1Nj42b-73" value="" style="group" vertex="1" connectable="0" parent="KOM_lpvtxGSNcEZmbtH8-66">
          <mxGeometry y="104" width="120" height="26" as="geometry" />
        </mxCell>
        <mxCell id="KOM_lpvtxGSNcEZmbtH8-67" value="50 ms" style="text;strokeColor=none;fillColor=none;align=right;verticalAlign=top;spacingLeft=4;spacingRight=4;overflow=hidden;rotatable=0;points=[[0,0.5],[1,0.5]];portConstraint=eastwest;fontColor=#00FF00;" parent="AAvzbvVHKAweYi1Nj42b-73" vertex="1">
          <mxGeometry width="120" height="26" as="geometry" />
        </mxCell>
        <mxCell id="AAvzbvVHKAweYi1Nj42b-1" value="" style="endArrow=classic;startArrow=classic;html=1;entryX=1.045;entryY=0.912;entryDx=0;entryDy=0;entryPerimeter=0;" edge="1" parent="AAvzbvVHKAweYi1Nj42b-73">
          <mxGeometry width="50" height="50" relative="1" as="geometry">
            <mxPoint x="60.66999999999996" y="12.740000000000009" as="sourcePoint" />
            <mxPoint x="9.995300000000043" y="13.268000000000029" as="targetPoint" />
          </mxGeometry>
        </mxCell>
        <mxCell id="AAvzbvVHKAweYi1Nj42b-5" value="" style="shape=image;verticalLabelPosition=bottom;labelBackgroundColor=#ffffff;verticalAlign=top;aspect=fixed;imageAspect=0;image=https://sc04.alicdn.com/kf/U0721a48732814105aae97d2245765dd2a.png;" vertex="1" parent="KOM_lpvtxGSNcEZmbtH8-65">
          <mxGeometry x="468.99" y="140" width="64" height="64" as="geometry" />
        </mxCell>
        <mxCell id="AAvzbvVHKAweYi1Nj42b-21" value="&lt;font style=&quot;font-size: 6px&quot;&gt;50 ms&lt;/font&gt;" style="text;html=1;strokeColor=none;fillColor=none;align=center;verticalAlign=middle;whiteSpace=wrap;rounded=0;fontColor=#00FF00;" vertex="1" parent="KOM_lpvtxGSNcEZmbtH8-65">
          <mxGeometry x="170" y="120" width="20" as="geometry" />
        </mxCell>
        <mxCell id="AAvzbvVHKAweYi1Nj42b-25" value="&lt;font style=&quot;font-size: 6px&quot;&gt;75 ms&lt;/font&gt;" style="text;html=1;strokeColor=none;fillColor=none;align=center;verticalAlign=middle;whiteSpace=wrap;rounded=0;fontColor=#FFFF00;" vertex="1" parent="KOM_lpvtxGSNcEZmbtH8-65">
          <mxGeometry x="150" y="180" width="20" as="geometry" />
        </mxCell>
        <mxCell id="AAvzbvVHKAweYi1Nj42b-31" value="&lt;font style=&quot;font-size: 6px&quot;&gt;1.5 seg&lt;/font&gt;" style="text;html=1;strokeColor=none;fillColor=none;align=center;verticalAlign=middle;whiteSpace=wrap;rounded=0;fontColor=#FFFF33;" vertex="1" parent="KOM_lpvtxGSNcEZmbtH8-65">
          <mxGeometry x="560" y="157.25" width="30" as="geometry" />
        </mxCell>
        <mxCell id="AAvzbvVHKAweYi1Nj42b-37" value="&lt;font style=&quot;font-size: 6px&quot;&gt;100 ms&lt;/font&gt;" style="text;html=1;strokeColor=none;fillColor=none;align=center;verticalAlign=middle;whiteSpace=wrap;rounded=0;rotation=39;fontColor=#FF3333;" vertex="1" parent="KOM_lpvtxGSNcEZmbtH8-65">
          <mxGeometry x="269.4" y="157.25" width="29" as="geometry" />
        </mxCell>
        <mxCell id="AAvzbvVHKAweYi1Nj42b-40" value="&lt;font style=&quot;font-size: 6px&quot; color=&quot;#ff3333&quot;&gt;100 ms&lt;/font&gt;" style="text;html=1;strokeColor=none;fillColor=none;align=center;verticalAlign=middle;whiteSpace=wrap;rounded=0;fontColor=#00FF00;rotation=322;" vertex="1" parent="KOM_lpvtxGSNcEZmbtH8-65">
          <mxGeometry x="265.4" y="132" width="29" as="geometry" />
        </mxCell>
        <mxCell id="AAvzbvVHKAweYi1Nj42b-47" value="&lt;font style=&quot;font-size: 6px&quot;&gt;1.5 seg&lt;/font&gt;" style="text;html=1;strokeColor=none;fillColor=none;align=center;verticalAlign=middle;whiteSpace=wrap;rounded=0;fontColor=#FFFF33;" vertex="1" parent="KOM_lpvtxGSNcEZmbtH8-65">
          <mxGeometry x="560" y="174.25" width="30" height="2.75" as="geometry" />
        </mxCell>
        <mxCell id="AAvzbvVHKAweYi1Nj42b-46" value="" style="shape=image;verticalLabelPosition=bottom;labelBackgroundColor=#ffffff;verticalAlign=top;aspect=fixed;imageAspect=0;image=https://www.todopostgresql.com/wp-content/uploads/2018/09/cursoPlpgsqlIntermedio.png;" vertex="1" parent="KOM_lpvtxGSNcEZmbtH8-65">
          <mxGeometry x="328" y="138.25" width="36" height="36" as="geometry" />
        </mxCell>
        <mxCell id="AAvzbvVHKAweYi1Nj42b-55" value="" style="shape=image;verticalLabelPosition=bottom;labelBackgroundColor=#ffffff;verticalAlign=top;aspect=fixed;imageAspect=0;image=https://www.docker.com/sites/default/files/d8/2019-07/vertical-logo-monochromatic.png;" vertex="1" parent="KOM_lpvtxGSNcEZmbtH8-65">
          <mxGeometry x="89" y="283.14" width="36.39" height="31.14" as="geometry" />
        </mxCell>
        <mxCell id="AAvzbvVHKAweYi1Nj42b-57" value="" style="shape=image;verticalLabelPosition=bottom;labelBackgroundColor=#ffffff;verticalAlign=top;aspect=fixed;imageAspect=0;image=https://www.stackxperts.com/wp-content/uploads/2020/01/k8s-logo.png;" vertex="1" parent="KOM_lpvtxGSNcEZmbtH8-65">
          <mxGeometry x="230" y="333" width="75" height="75" as="geometry" />
        </mxCell>
        <mxCell id="AAvzbvVHKAweYi1Nj42b-58" value="" style="shape=image;verticalLabelPosition=bottom;labelBackgroundColor=#ffffff;verticalAlign=top;aspect=fixed;imageAspect=0;image=https://assets.zabbix.com/img/brands/sentry.svg;" vertex="1" parent="KOM_lpvtxGSNcEZmbtH8-65">
          <mxGeometry x="126.39" y="284.95" width="79.02" height="27.51" as="geometry" />
        </mxCell>
        <mxCell id="AAvzbvVHKAweYi1Nj42b-61" value="" style="shape=image;verticalLabelPosition=bottom;labelBackgroundColor=#ffffff;verticalAlign=top;aspect=fixed;imageAspect=0;image=https://eb-blogs.s3.us-east-2.amazonaws.com/Codacy.png;" vertex="1" parent="KOM_lpvtxGSNcEZmbtH8-65">
          <mxGeometry x="210" y="274" width="50" height="26.25" as="geometry" />
        </mxCell>
        <mxCell id="AAvzbvVHKAweYi1Nj42b-59" value="" style="shape=image;verticalLabelPosition=bottom;labelBackgroundColor=#ffffff;verticalAlign=top;aspect=fixed;imageAspect=0;image=https://www.docker.com/sites/default/files/d8/2019-07/vertical-logo-monochromatic.png;" vertex="1" parent="KOM_lpvtxGSNcEZmbtH8-65">
          <mxGeometry x="380" y="284.95000000000005" width="36.39" height="31.14" as="geometry" />
        </mxCell>
        <mxCell id="AAvzbvVHKAweYi1Nj42b-4" value="" style="shape=message;html=1;whiteSpace=wrap;html=1;outlineConnect=0;pointerEvents=0;startSize=40;strokeWidth=1;" vertex="1" parent="1">
          <mxGeometry x="589" y="400.5" width="11" height="7" as="geometry" />
        </mxCell>
        <mxCell id="AAvzbvVHKAweYi1Nj42b-15" value="" style="group" vertex="1" connectable="0" parent="1">
          <mxGeometry x="589.17" y="420" width="10" height="20" as="geometry" />
        </mxCell>
        <mxCell id="AAvzbvVHKAweYi1Nj42b-13" style="edgeStyle=orthogonalEdgeStyle;rounded=0;orthogonalLoop=1;jettySize=auto;html=1;entryX=0;entryY=0.5;entryDx=0;entryDy=0;entryPerimeter=0;endArrow=classicThin;endFill=1;startSize=3;" edge="1" parent="AAvzbvVHKAweYi1Nj42b-15">
          <mxGeometry relative="1" as="geometry">
            <Array as="points">
              <mxPoint x="5.330000000000041" y="20.000000000000004" />
              <mxPoint x="5.330000000000041" />
            </Array>
            <mxPoint x="-14.669999999999959" y="19.789473684210538" as="sourcePoint" />
            <mxPoint x="25.33000000000004" y="-0.1894736842104737" as="targetPoint" />
          </mxGeometry>
        </mxCell>
        <mxCell id="AAvzbvVHKAweYi1Nj42b-14" value="" style="shape=message;html=1;whiteSpace=wrap;html=1;outlineConnect=0;pointerEvents=0;startSize=40;strokeWidth=1;" vertex="1" parent="AAvzbvVHKAweYi1Nj42b-15">
          <mxGeometry y="6.8384210526315785" width="10" height="6.315789473684211" as="geometry" />
        </mxCell>
        <mxCell id="AAvzbvVHKAweYi1Nj42b-22" value="&lt;font style=&quot;font-size: 6px&quot;&gt;50 ms&lt;/font&gt;" style="text;html=1;strokeColor=none;fillColor=none;align=center;verticalAlign=middle;whiteSpace=wrap;rounded=0;fontColor=#00FF00;" vertex="1" parent="1">
          <mxGeometry x="394" y="288" width="20" as="geometry" />
        </mxCell>
        <mxCell id="AAvzbvVHKAweYi1Nj42b-23" value="&lt;font style=&quot;font-size: 6px&quot;&gt;50 ms&lt;/font&gt;" style="text;html=1;strokeColor=none;fillColor=none;align=center;verticalAlign=middle;whiteSpace=wrap;rounded=0;fontColor=#00FF00;" vertex="1" parent="1">
          <mxGeometry x="223.5" y="320" width="20" as="geometry" />
        </mxCell>
        <mxCell id="AAvzbvVHKAweYi1Nj42b-24" value="&lt;font style=&quot;font-size: 6px&quot;&gt;50 ms&lt;/font&gt;" style="text;html=1;strokeColor=none;fillColor=none;align=center;verticalAlign=middle;whiteSpace=wrap;rounded=0;fontColor=#00FF00;" vertex="1" parent="1">
          <mxGeometry x="21" y="188" width="20" as="geometry" />
        </mxCell>
        <mxCell id="AAvzbvVHKAweYi1Nj42b-27" value="&lt;font style=&quot;font-size: 6px&quot;&gt;75 ms&lt;/font&gt;" style="text;html=1;strokeColor=none;fillColor=none;align=center;verticalAlign=middle;whiteSpace=wrap;rounded=0;fontColor=#FFFF00;" vertex="1" parent="1">
          <mxGeometry x="99.01" y="258" width="20" as="geometry" />
        </mxCell>
        <mxCell id="AAvzbvVHKAweYi1Nj42b-28" value="&lt;font style=&quot;font-size: 6px&quot;&gt;75 ms&lt;/font&gt;" style="text;html=1;strokeColor=none;fillColor=none;align=center;verticalAlign=middle;whiteSpace=wrap;rounded=0;fontColor=#FFFF00;" vertex="1" parent="1">
          <mxGeometry x="171.32999999999998" y="232" width="20" as="geometry" />
        </mxCell>
        <mxCell id="AAvzbvVHKAweYi1Nj42b-32" value="&lt;font style=&quot;font-size: 6px&quot;&gt;50 ms&lt;/font&gt;" style="text;html=1;strokeColor=none;fillColor=none;align=center;verticalAlign=middle;whiteSpace=wrap;rounded=0;fontColor=#00FF00;" vertex="1" parent="1">
          <mxGeometry x="330.48" y="217.5" width="20" as="geometry" />
        </mxCell>
        <mxCell id="AAvzbvVHKAweYi1Nj42b-33" value="&lt;font style=&quot;font-size: 6px&quot;&gt;50 ms&lt;/font&gt;" style="text;html=1;strokeColor=none;fillColor=none;align=center;verticalAlign=middle;whiteSpace=wrap;rounded=0;fontColor=#00FF00;" vertex="1" parent="1">
          <mxGeometry x="333.99" y="266.5" width="20" as="geometry" />
        </mxCell>
        <mxCell id="AAvzbvVHKAweYi1Nj42b-48" value="&lt;font style=&quot;font-size: 6px&quot;&gt;1 ms&lt;/font&gt;" style="text;html=1;strokeColor=none;fillColor=none;align=center;verticalAlign=middle;whiteSpace=wrap;rounded=0;fontColor=#00FF00;" vertex="1" parent="1">
          <mxGeometry x="100" y="175" width="20" as="geometry" />
        </mxCell>
        <mxCell id="AAvzbvVHKAweYi1Nj42b-49" value="&lt;font style=&quot;font-size: 6px&quot;&gt;800 ms&lt;/font&gt;" style="text;html=1;strokeColor=none;fillColor=none;align=center;verticalAlign=middle;whiteSpace=wrap;rounded=0;fontColor=#00FF00;" vertex="1" parent="1">
          <mxGeometry x="67" y="335" width="23" as="geometry" />
        </mxCell>
        <mxCell id="AAvzbvVHKAweYi1Nj42b-50" value="&lt;font style=&quot;font-size: 6px&quot;&gt;500 ms&lt;/font&gt;" style="text;html=1;strokeColor=none;fillColor=none;align=center;verticalAlign=middle;whiteSpace=wrap;rounded=0;fontColor=#00FF00;" vertex="1" parent="1">
          <mxGeometry x="290" y="325" width="23" as="geometry" />
        </mxCell>
        <mxCell id="AAvzbvVHKAweYi1Nj42b-51" value="&lt;font style=&quot;font-size: 6px&quot;&gt;100 ms&lt;/font&gt;" style="text;html=1;strokeColor=none;fillColor=none;align=center;verticalAlign=middle;whiteSpace=wrap;rounded=0;fontColor=#00FF00;" vertex="1" parent="1">
          <mxGeometry x="431.49" y="312" width="23" height="5" as="geometry" />
        </mxCell>
        <mxCell id="AAvzbvVHKAweYi1Nj42b-60" value="" style="shape=image;verticalLabelPosition=bottom;labelBackgroundColor=#ffffff;verticalAlign=top;aspect=fixed;imageAspect=0;image=https://assets.zabbix.com/img/brands/sentry.svg;" vertex="1" parent="1">
          <mxGeometry x="408.01" y="377.83" width="69.96" height="24.35" as="geometry" />
        </mxCell>
        <mxCell id="AAvzbvVHKAweYi1Nj42b-62" value="" style="shape=image;verticalLabelPosition=bottom;labelBackgroundColor=#ffffff;verticalAlign=top;aspect=fixed;imageAspect=0;image=https://eb-blogs.s3.us-east-2.amazonaws.com/Codacy.png;" vertex="1" parent="1">
          <mxGeometry x="484.92" y="365" width="47.62" height="25" as="geometry" />
        </mxCell>
        <mxCell id="AAvzbvVHKAweYi1Nj42b-64" value="" style="endArrow=classic;startArrow=classic;html=1;exitX=0;exitY=0.5;exitDx=0;exitDy=0;entryX=0.237;entryY=1.006;entryDx=0;entryDy=0;entryPerimeter=0;" edge="1" parent="1" source="AAvzbvVHKAweYi1Nj42b-57" target="KOM_lpvtxGSNcEZmbtH8-50">
          <mxGeometry width="50" height="50" relative="1" as="geometry">
            <mxPoint x="187.49401" y="375.15200000000004" as="sourcePoint" />
            <mxPoint x="66" y="420" as="targetPoint" />
            <Array as="points">
              <mxPoint x="52" y="460" />
            </Array>
          </mxGeometry>
        </mxCell>
        <mxCell id="AAvzbvVHKAweYi1Nj42b-65" value="" style="endArrow=classic;startArrow=classic;html=1;entryX=0.5;entryY=1;entryDx=0;entryDy=0;" edge="1" parent="1" source="AAvzbvVHKAweYi1Nj42b-57" target="KOM_lpvtxGSNcEZmbtH8-64">
          <mxGeometry width="50" height="50" relative="1" as="geometry">
            <mxPoint x="310" y="460" as="sourcePoint" />
            <mxPoint x="61.61999999999989" y="431.62" as="targetPoint" />
            <Array as="points">
              <mxPoint x="412" y="460" />
            </Array>
          </mxGeometry>
        </mxCell>
        <mxCell id="AAvzbvVHKAweYi1Nj42b-66" value="" style="shape=image;verticalLabelPosition=bottom;labelBackgroundColor=#ffffff;verticalAlign=top;aspect=fixed;imageAspect=0;image=https://upload.wikimedia.org/wikipedia/commons/thumb/e/e3/Jenkins_logo_with_title.svg/2560px-Jenkins_logo_with_title.svg.png;" vertex="1" parent="1">
          <mxGeometry x="184.97" y="390" width="58.53" height="30.72" as="geometry" />
        </mxCell>
        <mxCell id="AAvzbvVHKAweYi1Nj42b-67" value="" style="shape=image;verticalLabelPosition=bottom;labelBackgroundColor=#ffffff;verticalAlign=top;aspect=fixed;imageAspect=0;image=https://upload.wikimedia.org/wikipedia/commons/thumb/e/e3/Jenkins_logo_with_title.svg/2560px-Jenkins_logo_with_title.svg.png;" vertex="1" parent="1">
          <mxGeometry x="479.47" y="388.64" width="58.53" height="30.72" as="geometry" />
        </mxCell>
        <mxCell id="AAvzbvVHKAweYi1Nj42b-71" value="&lt;span style=&quot;font-size: 8px&quot;&gt;&lt;font color=&quot;#00cc00&quot;&gt;&lt;b&gt;Deploy&lt;/b&gt;&lt;/font&gt;&lt;br&gt;&lt;/span&gt;" style="text;html=1;strokeColor=none;fillColor=none;align=center;verticalAlign=middle;whiteSpace=wrap;rounded=0;pointerEvents=0;startSize=40;" vertex="1" parent="1">
          <mxGeometry x="-26.49000000000001" y="340.22" width="70.99" height="20" as="geometry" />
        </mxCell>
        <mxCell id="AAvzbvVHKAweYi1Nj42b-72" value="&lt;span style=&quot;font-size: 8px&quot;&gt;&lt;font color=&quot;#00cc00&quot;&gt;&lt;b&gt;Deploy&lt;/b&gt;&lt;/font&gt;&lt;br&gt;&lt;/span&gt;" style="text;html=1;strokeColor=none;fillColor=none;align=center;verticalAlign=middle;whiteSpace=wrap;rounded=0;pointerEvents=0;startSize=40;" vertex="1" parent="1">
          <mxGeometry x="269.78999999999996" y="340.22" width="70.99" height="20" as="geometry" />
        </mxCell>
      </root>
    </mxGraphModel>
  </diagram>
</mxfile>
